<svg width="12" height="12" viewBox="0 0 12 12" fill="none" xmlns="http://www.w3.org/2000/svg">
<g clip-path="url(#clip0_1_65)">
<path d="M6.69727 2.73517C6.46836 2.71041 6.23577 2.69622 6 2.69269C4.96975 2.69726 3.90177 2.94786 2.89087 3.42805C2.14029 3.79927 1.40914 4.32334 0.77417 4.96979C0.46232 5.29979 0.06431 5.77761 0 6.28741C0.0076 6.72903 0.48153 7.27411 0.77417 7.60505C1.3696 8.22611 2.08171 8.73518 2.89087 9.14679C2.91837 9.16014 2.94597 9.17333 2.97363 9.18634L2.22291 10.4974L3.24296 11.1002L8.75712 1.49989L7.77526 0.899811L6.69727 2.73517ZM9.02563 3.38996L8.27636 4.68853C8.62106 5.13635 8.82568 5.68859 8.82568 6.28741C8.82568 7.77998 7.56046 8.99005 5.99926 8.99005C5.93177 8.99005 5.86636 8.98277 5.80004 8.97833L5.30419 9.83673C5.53287 9.86122 5.76409 9.87906 5.99999 9.88214C7.03122 9.87751 8.0986 9.62402 9.10839 9.14679C9.85897 8.77557 10.5908 8.2515 11.2258 7.60505C11.5377 7.27506 11.9357 6.79723 12 6.28741C11.9924 5.8458 11.5185 5.30072 11.2258 4.96978C10.6304 4.34872 9.91755 3.83965 9.10839 3.42803C9.08108 3.41479 9.05312 3.40288 9.02563 3.38996ZM5.99927 3.58479C6.06773 3.58479 6.13565 3.58753 6.20288 3.59211L5.62207 4.59772C4.80693 4.76298 4.19531 5.45652 4.19531 6.28669C4.19531 6.49523 4.23372 6.69488 4.30444 6.87994C4.30452 6.88015 4.30436 6.88047 4.30444 6.88068L3.72216 7.88922C3.37665 7.44099 3.17284 6.88693 3.17284 6.2874C3.17285 4.79485 4.43808 3.58478 5.99927 3.58479ZM7.68896 5.70514L6.38013 7.97272C7.19089 7.80435 7.7981 7.11397 7.7981 6.28669C7.7981 6.08195 7.75724 5.8873 7.68896 5.70514Z" fill="#F8F8F8"/>
</g>
<defs>
<clipPath id="clip0_1_65">
<rect width="12" height="12" fill="white"/>
</clipPath>
</defs>
</svg>
